<svg xmlns="http://www.w3.org/2000/svg" width="153.659" height="91.201" viewBox="0 0 153.659 91.201">
  <g id="Group_320" data-name="Group 320" transform="translate(-699.499 -698.5)">
    <rect id="Rectangle_181" data-name="Rectangle 181" width="123" height="74" transform="translate(715 703)" fill="#90b4ce"/>
    <path id="Path_235" data-name="Path 235" d="M9.431,105.45H137.95a.845.845,0,0,0,.788-.788V26.919a5.485,5.485,0,0,0-5.519-5.519H14.319A5.485,5.485,0,0,0,8.8,26.919v77.742A.721.721,0,0,0,9.431,105.45ZM73.769,22.977a.788.788,0,1,1-.788.788.745.745,0,0,1,.788-.788ZM12.585,26.288H134.954v72.7H12.585Z" transform="translate(702.559 677.6)" fill="#fffffe" stroke="#094067" stroke-miterlimit="10" stroke-width="1"/>
    <path id="Path_236" data-name="Path 236" d="M85.965,75.9a.745.745,0,0,1-.788.788H70.669a.745.745,0,0,1-.788-.788H1.6a4.06,4.06,0,0,0,3.785,4.258H150.462a4.06,4.06,0,0,0,3.785-4.258Z" transform="translate(698.405 709.043)" fill="#fffffe" stroke="#094067" stroke-miterlimit="10" stroke-width="1"/>
    <path id="Path_238" data-name="Path 238" d="M13.682,47.381,4.72,39.888l8.962-7.444a1.485,1.485,0,0,0,.2-2.106A1.564,1.564,0,0,0,12.7,29.8a1.5,1.5,0,0,0-.979.343L1.439,38.762a1.552,1.552,0,0,0,0,2.351l10.333,8.619a1.412,1.412,0,0,0,.979.343,1.564,1.564,0,0,0,1.175-.539A1.593,1.593,0,0,0,13.682,47.381Z" transform="translate(752 700.476)" fill="#094067"/>
    <path id="Path_239" data-name="Path 239" d="M84.811,41.037a1.564,1.564,0,0,0-.539-1.175L73.89,31.243a1.5,1.5,0,0,0-.979-.343,1.564,1.564,0,0,0-1.175.539,1.485,1.485,0,0,0,.2,2.106l8.962,7.493L71.981,48.53a1.494,1.494,0,0,0,.979,2.644,1.823,1.823,0,0,0,.979-.343l10.333-8.619A1.564,1.564,0,0,0,84.811,41.037Z" transform="translate(716.032 699.915)" fill="#094067"/>
    <path id="Path_240" data-name="Path 240" d="M47.111,12.949a1.356,1.356,0,0,0-.441-.049,1.455,1.455,0,0,0-1.42,1.077L34.329,48.943a1.487,1.487,0,0,0,.979,1.861,1.356,1.356,0,0,0,.441.049,1.469,1.469,0,0,0,1.42-1.077L48.042,14.761A1.391,1.391,0,0,0,47.111,12.949Z" transform="translate(734.976 709.1)" fill="#ef4464"/>
  </g>
</svg>
