<svg xmlns="http://www.w3.org/2000/svg" width="153.646" height="91.2" viewBox="0 0 153.646 91.2"><g transform="translate(5057.5 -3088.5)"><g transform="translate(138.4 -3)"><path d="M9.431,105.45H137.95a.845.845,0,0,0,.788-.788V26.919a5.485,5.485,0,0,0-5.519-5.519H14.319A5.485,5.485,0,0,0,8.8,26.919v77.742A.721.721,0,0,0,9.431,105.45ZM73.769,22.977a.788.788,0,1,1-.788.788A.745.745,0,0,1,73.769,22.977ZM12.585,26.288H134.954v72.7H12.585Z" transform="translate(-5192.846 3070.6)" fill="none" stroke="#13a3fd" stroke-miterlimit="10" stroke-width="1"/><path d="M85.965,75.9a.745.745,0,0,1-.788.788H70.669a.745.745,0,0,1-.788-.788H1.6a4.06,4.06,0,0,0,3.785,4.258H150.462a4.06,4.06,0,0,0,3.785-4.258Z" transform="translate(-5197 3102.043)" fill="none" stroke="#13a3fd" stroke-miterlimit="10" stroke-width="1"/></g><g transform="translate(177.136 75.547)"><path d="M69.859,55.592l-7.873,7.89c-.9.969-.392,1.756,1.084,3.153a3.429,3.429,0,0,0,2.1,1.165,1.242,1.242,0,0,0,.885-.379l10.65-10.645a2.046,2.046,0,0,0,.421-1.428A1.537,1.537,0,0,0,76.6,54.29L66.008,43.707a1.405,1.405,0,0,0-.974-.49c-.654,0-1.305.649-2.066,1.41a6.4,6.4,0,0,0-1.338,1.616A1.194,1.194,0,0,0,62,47.727Zm-6.006-10.1a7.317,7.317,0,0,1,1.155-1.019.985.985,0,0,1,.124.109l10.64,10.624a.326.326,0,0,1,.124.252.942.942,0,0,1-.1.481L65.178,66.56l0,.619V66.56s-.389-.01-1.251-.826a6.569,6.569,0,0,1-1.151-1.264.76.76,0,0,1,.108-.133l8.729-8.748-8.729-8.738a.952.952,0,0,1-.109-.125A6.8,6.8,0,0,1,63.853,45.493Z" transform="translate(-5208 3003.564)" fill="#13a3fd"/><path d="M33.955,67.432a1.228,1.228,0,0,0,.873.368,3.436,3.436,0,0,0,2.1-1.165c1.476-1.4,1.982-2.185,1.067-3.169l-7.856-7.874L38,47.728a1.2,1.2,0,0,0,.376-1.481,6.455,6.455,0,0,0-1.348-1.625c-.753-.754-1.4-1.4-2.059-1.4a1.4,1.4,0,0,0-.974.49L23.442,54.251a1.57,1.57,0,0,0-.57,1.1,2.059,2.059,0,0,0,.457,1.467ZM24.273,55.168,34.868,44.583a1.026,1.026,0,0,1,.123-.108,7.287,7.287,0,0,1,1.16,1.023A6.973,6.973,0,0,1,37.23,46.73a1.159,1.159,0,0,1-.108.122L28.393,55.59l8.714,8.732c.067.072.094.114.11.106-.027.093-.191.411-1.138,1.306-.863.816-1.247.826-1.251.826L24.242,55.983a.856.856,0,0,1-.138-.521A.386.386,0,0,1,24.273,55.168Z" transform="translate(-5208 3003.564)" fill="#13a3fd"/><path d="M43.306,69.363a4.955,4.955,0,0,0,2,.649,1.382,1.382,0,0,0,1.291-.906L59.162,43.342c.651-1.335-.237-2.107-1.77-2.854a4.725,4.725,0,0,0-1.94-.6,1.479,1.479,0,0,0-1.4.962L41.485,66.613a1.4,1.4,0,0,0,.016,1.5A4.523,4.523,0,0,0,43.306,69.363ZM42.6,67.156,55.165,41.394c.131-.268.164-.268.287-.268a3.637,3.637,0,0,1,1.4.474c1.442.7,1.329.934,1.2,1.2L45.48,68.563a.831.831,0,0,1-.123.206.223.223,0,0,1-.056,0,4.391,4.391,0,0,1-1.453-.523c-1.19-.582-1.327-.822-1.341-.854A.778.778,0,0,1,42.6,67.156Z" transform="translate(-5208 3003.564)" fill="#13a3fd"/></g></g></svg>