<svg xmlns="http://www.w3.org/2000/svg" width="153.659" height="91.201" viewBox="0 0 153.659 91.201">
  <g id="Group_319" data-name="Group 319" transform="translate(-1018.499 -698.5)">
    <rect id="Rectangle_181" data-name="Rectangle 181" width="123" height="74" transform="translate(1034 703)" fill="#90b4ce"/>
    <path id="Path_235" data-name="Path 235" d="M9.431,105.45H137.95a.845.845,0,0,0,.788-.788V26.919a5.485,5.485,0,0,0-5.519-5.519H14.319A5.485,5.485,0,0,0,8.8,26.919v77.742A.721.721,0,0,0,9.431,105.45ZM73.769,22.977a.788.788,0,1,1-.788.788.745.745,0,0,1,.788-.788ZM12.585,26.288H134.954v72.7H12.585Z" transform="translate(1021.559 677.6)" fill="#fffffe" stroke="#094067" stroke-miterlimit="10" stroke-width="1"/>
    <path id="Path_236" data-name="Path 236" d="M85.965,75.9a.745.745,0,0,1-.788.788H70.669a.745.745,0,0,1-.788-.788H1.6a4.06,4.06,0,0,0,3.785,4.258H150.462a4.06,4.06,0,0,0,3.785-4.258Z" transform="translate(1017.405 709.043)" fill="#fffffe" stroke="#094067" stroke-miterlimit="10" stroke-width="1"/>
    <g id="Group_318" data-name="Group 318" transform="translate(-1186.5 -116)">
      <path id="Path_251" data-name="Path 251" d="M55.917,38.852a1.307,1.307,0,0,0-1.41-.078,1.456,1.456,0,0,0-.7,1.175v1.958c-4.229.313-8.146,4.229-10.339,9.712-1.88-9.79-6.658-16.683-12.375-16.683-5.169,0-9.555,5.561-11.827,13.785C16.833,36.581,10.959,28.2,3.832,28.2a1.332,1.332,0,1,0,0,2.663c7.519,0,13.863,13.785,13.863,30.076a1.332,1.332,0,1,0,2.663,0c0-12.688,4.856-23.34,10.652-23.34s10.652,10.73,10.652,23.34a1.332,1.332,0,1,0,2.663,0c0-8.851,4.934-15.821,9.477-16.37v1.88a1.456,1.456,0,0,0,.7,1.175,1.843,1.843,0,0,0,.627.157,1.511,1.511,0,0,0,.783-.235l4.778-3.29a1.35,1.35,0,0,0,.627-1.1,1.25,1.25,0,0,0-.627-1.1Z" transform="translate(2242 810.8)" fill="#094067"/>
      <g id="Group_317" data-name="Group 317" transform="translate(2306.498 847.937)">
        <path id="Path_250" data-name="Path 250" d="M87.644,39.3a6.344,6.344,0,1,0,6.344,6.344A6.318,6.318,0,0,0,87.644,39.3Zm0,10.025a3.681,3.681,0,1,1,3.681-3.681A3.677,3.677,0,0,1,87.644,49.325Z" transform="translate(-81.3 -39.3)" fill="#ef4565"/>
        <circle id="Ellipse_7" data-name="Ellipse 7" cx="4.468" cy="4.468" r="4.468" transform="translate(2.234 2.234)" fill="#ef4565"/>
      </g>
    </g>
  </g>
</svg>
