<svg xmlns="http://www.w3.org/2000/svg" width="153.646" height="91.2" viewBox="0 0 153.646 91.2"><g transform="translate(5215.9 -3091.5)"><path d="M9.431,105.45H137.95a.845.845,0,0,0,.788-.788V26.919a5.485,5.485,0,0,0-5.519-5.519H14.319A5.485,5.485,0,0,0,8.8,26.919v77.742A.721.721,0,0,0,9.431,105.45ZM73.769,22.977a.788.788,0,1,1-.788.788A.745.745,0,0,1,73.769,22.977ZM12.585,26.288H134.954v72.7H12.585Z" transform="translate(-5212.846 3070.6)" fill="none" stroke="#13a3fd" stroke-miterlimit="10" stroke-width="1"/><path d="M85.965,75.9a.745.745,0,0,1-.788.788H70.669a.745.745,0,0,1-.788-.788H1.6a4.06,4.06,0,0,0,3.785,4.258H150.462a4.06,4.06,0,0,0,3.785-4.258Z" transform="translate(-5217 3102.043)" fill="none" stroke="#13a3fd" stroke-miterlimit="10" stroke-width="1"/><path d="M71.736,27H31.191A1.807,1.807,0,0,0,29.4,28.791V91.318a1.807,1.807,0,0,0,1.791,1.791H71.736a1.807,1.807,0,0,0,1.791-1.791V28.791A1.807,1.807,0,0,0,71.736,27Z" transform="translate(-5202.23 3073.831)" fill="none" stroke="#13a3fd" stroke-miterlimit="10" stroke-width="1"/><rect width="37.688" height="55.35" transform="translate(-5169.779 3105.246)" fill="none" stroke="#13a3fd" stroke-miterlimit="10" stroke-width="0.7"/><ellipse cx="0.946" cy="0.946" rx="0.946" ry="0.946" transform="translate(-5151.219 3161.858)" fill="none" stroke="#13a3fd" stroke-miterlimit="10" stroke-width="0.5"/><ellipse cx="0.473" cy="0.473" rx="0.473" ry="0.473" transform="translate(-5150.746 3102.566)" fill="#13a3fd"/><path d="M44.967,5H28.839a2.234,2.234,0,0,0-2.231,2.231V42.439a2.234,2.234,0,0,0,2.231,2.231H44.967A2.234,2.234,0,0,0,47.2,42.439V7.231A2.234,2.234,0,0,0,44.967,5ZM46.7,42.439a1.737,1.737,0,0,1-1.735,1.735H28.839A1.737,1.737,0,0,1,27.1,42.439V7.231A1.737,1.737,0,0,1,28.839,5.5H44.967A1.737,1.737,0,0,1,46.7,7.231V42.439Z" transform="translate(-5150.449 3119.124)" fill="#13a3fd"/><path d="M45.1,12.363h3.8a.455.455,0,0,0,0-.909H45.1a.455.455,0,0,0,0,.909Z" transform="translate(-5160.55 3115.51)" fill="#13a3fd"/><path d="M47.792,83.572a1.735,1.735,0,1,0,1.735,1.735A1.737,1.737,0,0,0,47.792,83.572Zm0,2.975a1.24,1.24,0,1,1,1.24-1.24A1.241,1.241,0,0,1,47.792,86.547Z" transform="translate(-5161.338 3075.133)" fill="#13a3fd"/><g transform="translate(-5121.909 3129.845)" fill="none" stroke="#13a3fd" stroke-width="0.5"><rect width="16.694" height="27.956" stroke="none"/><rect x="0.25" y="0.25" width="16.194" height="27.456" fill="none"/></g></g></svg>