<svg xmlns="http://www.w3.org/2000/svg" width="46.593" height="89.766" viewBox="0 0 46.593 89.766"><g transform="translate(5405 -3190)"><g transform="translate(-5405 3190)"><path d="M47.911,13.452h8.6a1.028,1.028,0,1,0,0-2.057h-8.6a1.028,1.028,0,0,0,0,2.057Z" transform="translate(-28.915 -4.968)" fill="#13a3fd"/><path d="M70.385,4.941H33.89A5.054,5.054,0,0,0,28.841,9.99V89.658a5.054,5.054,0,0,0,5.049,5.049H70.385a5.054,5.054,0,0,0,5.049-5.049V9.99A5.054,5.054,0,0,0,70.385,4.941Zm3.927,84.717a3.931,3.931,0,0,1-3.927,3.927H33.89a3.931,3.931,0,0,1-3.927-3.927V9.99A3.931,3.931,0,0,1,33.89,6.063H70.385A3.931,3.931,0,0,1,74.312,9.99Z" transform="translate(-28.841 -4.941)" fill="#13a3fd"/><path d="M33.269,80.748H71.043V17.491H33.269Zm1.122-62.135h35.53V79.626H34.391Z" transform="translate(-28.859 -4.993)" fill="#13a3fd"/><path d="M52.218,83.513a3.927,3.927,0,1,0,3.927,3.927A3.931,3.931,0,0,0,52.218,83.513Zm0,6.732a2.8,2.8,0,1,1,2.8-2.8A2.808,2.808,0,0,1,52.218,90.245Z" transform="translate(-28.921 -5.265)" fill="#13a3fd"/></g><g transform="translate(-5386.58 3208.286)"><path d="M17.972,15.736A2.236,2.236,0,1,1,15.736,13.5,2.236,2.236,0,0,1,17.972,15.736Z" transform="translate(-6.037 -6.037)" fill="none" stroke="#13a3fd" stroke-linecap="round" stroke-linejoin="round" stroke-width="1"/><path d="M15.214,11.935a1.23,1.23,0,0,0,.246,1.356l.045.045A1.491,1.491,0,1,1,13.4,15.445l-.045-.045a1.24,1.24,0,0,0-2.1.879v.127a1.491,1.491,0,0,1-2.981,0v-.067a1.23,1.23,0,0,0-.8-1.125,1.23,1.23,0,0,0-1.356.246l-.045.045A1.491,1.491,0,1,1,3.952,13.4L4,13.351a1.24,1.24,0,0,0-.879-2.1H2.991a1.491,1.491,0,0,1,0-2.981h.067a1.23,1.23,0,0,0,1.125-.8,1.23,1.23,0,0,0-.246-1.356l-.045-.045A1.491,1.491,0,1,1,6,3.952L6.047,4A1.23,1.23,0,0,0,7.4,4.243h.06a1.23,1.23,0,0,0,.745-1.125V2.991a1.491,1.491,0,0,1,2.981,0v.067a1.24,1.24,0,0,0,2.1.879l.045-.045A1.491,1.491,0,1,1,15.445,6l-.045.045A1.23,1.23,0,0,0,15.154,7.4v.06a1.23,1.23,0,0,0,1.125.745h.127a1.491,1.491,0,0,1,0,2.981h-.067a1.23,1.23,0,0,0-1.125.745Z" transform="translate(0 0)" fill="none" stroke="#13a3fd" stroke-linecap="round" stroke-linejoin="round" stroke-width="1"/></g><g transform="translate(-5413 3208.5)"><path d="M32.5,29.515a5.863,5.863,0,1,0-5.614,0A11.215,11.215,0,0,0,18.5,40.352a.533.533,0,0,0,1.066,0,10.127,10.127,0,1,1,20.253,0,.533.533,0,0,0,1.066,0A11.215,11.215,0,0,0,32.5,29.515Zm-7.6-5.152a4.8,4.8,0,1,1,4.8,4.8A4.822,4.822,0,0,1,24.9,24.363Z" fill="#13a3fd"/></g></g></svg>