<svg xmlns="http://www.w3.org/2000/svg" width="103.904" height="90.137" viewBox="0 0 103.904 90.137"><g transform="translate(5174.511 -3128)"><path d="M68.323,5H31.677a5.075,5.075,0,0,0-5.07,5.07v80a5.075,5.075,0,0,0,5.07,5.07H68.323a5.075,5.075,0,0,0,5.07-5.07v-80A5.075,5.075,0,0,0,68.323,5Zm3.943,85.067a3.948,3.948,0,0,1-3.943,3.943H31.677a3.948,3.948,0,0,1-3.943-3.943v-80a3.948,3.948,0,0,1,3.943-3.943H68.323a3.948,3.948,0,0,1,3.943,3.943v80Z" transform="translate(-5144 3123)" fill="#13a3fd"/><path d="M45.681,13.519h8.637a1.033,1.033,0,1,0,0-2.065H45.681a1.033,1.033,0,1,0,0,2.065Z" transform="translate(-5144 3123)" fill="#13a3fd"/><path d="M31.035,81.068h37.93V17.55H31.035Zm33.642-1.127H35.76V72.385H64.677v7.556ZM32.162,18.677H67.838V79.942H65.8V71.259H34.633v8.683H32.162V18.677Z" transform="translate(-5144 3123)" fill="#13a3fd"/><path d="M50,83.572a3.943,3.943,0,1,0,3.943,3.943A3.948,3.948,0,0,0,50,83.572Zm0,6.76a2.817,2.817,0,1,1,2.817-2.817A2.82,2.82,0,0,1,50,90.331Z" transform="translate(-5144 3123)" fill="#13a3fd"/><path d="M65.8,21.531H34.633V44.063H65.8Zm-1.127,1.127v11.83H35.76V22.657ZM35.76,42.936V35.613H64.677v7.323Z" transform="translate(-5144 3123)" fill="#13a3fd"/><path d="M65.8,46.379H34.633V68.911H65.8Zm-1.127,1.127V59.4H35.76V47.506ZM35.76,67.785V60.524H64.677v7.261Z" transform="translate(-5144 3123)" fill="#13a3fd"/><path d="M40.83,36.083a3,3,0,1,0,3,3A3.008,3.008,0,0,0,40.83,36.083Zm0,4.882a1.878,1.878,0,1,1,1.878-1.878A1.88,1.88,0,0,1,40.83,40.965Z" transform="translate(-5144 3123)" fill="#13a3fd"/><rect width="15.147" height="1.127" transform="translate(-5097.099 3160.303)" fill="#13a3fd"/><rect width="11.516" height="1.127" transform="translate(-5097.099 3163.12)" fill="#13a3fd"/><path d="M40.83,60.994a3,3,0,1,0,3,3A3.008,3.008,0,0,0,40.83,60.994Zm0,4.882A1.878,1.878,0,1,1,42.708,64,1.88,1.88,0,0,1,40.83,65.876Z" transform="translate(-5144 3123)" fill="#13a3fd"/><rect width="15.147" height="1.127" transform="translate(-5097.099 3185.214)" fill="#13a3fd"/><rect width="11.516" height="1.127" transform="translate(-5097.099 3188.031)" fill="#13a3fd"/><path d="M67.2,5H30.559a5.075,5.075,0,0,0-5.07,5.07v80a5.075,5.075,0,0,0,5.07,5.07H67.2a5.075,5.075,0,0,0,5.07-5.07v-80A5.075,5.075,0,0,0,67.2,5Zm3.943,85.067A3.948,3.948,0,0,1,67.2,94.01H30.559a3.948,3.948,0,0,1-3.943-3.943v-80a3.948,3.948,0,0,1,3.943-3.943H67.2a3.948,3.948,0,0,1,3.943,3.943v80Z" transform="translate(-5200 3123)" fill="#13a3fd"/><path d="M44.563,13.519H53.2a1.033,1.033,0,1,0,0-2.065H44.563a1.033,1.033,0,1,0,0,2.065Z" transform="translate(-5200 3123)" fill="#13a3fd"/><path d="M29.917,81.068h37.93V17.55H29.917V81.068ZM49.536,49.309,66.72,20.177V78.441ZM66.3,79.942H31.466L48.882,50.418ZM48.882,48.2,31.466,18.677H66.3Zm-.654,1.109L31.044,78.441V20.177Z" transform="translate(-5200 3123)" fill="#13a3fd"/><path d="M48.882,83.572a3.943,3.943,0,1,0,3.943,3.943A3.948,3.948,0,0,0,48.882,83.572Zm0,6.76A2.817,2.817,0,1,1,51.7,87.515,2.82,2.82,0,0,1,48.882,90.331Z" transform="translate(-5200 3123)" fill="#13a3fd"/></g></svg>