<svg xmlns="http://www.w3.org/2000/svg" width="104" height="90.14" viewBox="0 0 104 90.14">
  <g id="Group_313" data-name="Group 313" transform="translate(-1020 -668)">
    <rect id="Rectangle_168" data-name="Rectangle 168" width="47" height="90" rx="5" transform="translate(1020 668)" fill="#fff"/>
    <path id="Path_217" data-name="Path 217" d="M67.2,5H30.559a5.075,5.075,0,0,0-5.07,5.07v80a5.075,5.075,0,0,0,5.07,5.07H67.2a5.075,5.075,0,0,0,5.07-5.07v-80A5.075,5.075,0,0,0,67.2,5Zm3.943,85.067A3.948,3.948,0,0,1,67.2,94.01H30.559a3.948,3.948,0,0,1-3.943-3.943v-80a3.948,3.948,0,0,1,3.943-3.943H67.2a3.948,3.948,0,0,1,3.943,3.943Z" transform="translate(994.511 663)" fill="#094067"/>
    <path id="Path_218" data-name="Path 218" d="M44.563,13.519H53.2a1.033,1.033,0,1,0,0-2.065H44.563a1.033,1.033,0,1,0,0,2.065Z" transform="translate(994.511 663)" fill="#094067"/>
    <path id="Path_219" data-name="Path 219" d="M29.917,81.068h37.93V17.55H29.917ZM49.536,49.309,66.72,20.177V78.441ZM66.3,79.942H31.466L48.882,50.418ZM48.882,48.2,31.466,18.677H66.3Zm-.654,1.109L31.044,78.441V20.177Z" transform="translate(994.511 663)" fill="#094067"/>
    <path id="Path_220" data-name="Path 220" d="M48.882,83.572a3.943,3.943,0,1,0,3.943,3.943,3.943,3.943,0,0,0-3.943-3.943Zm0,6.76A2.817,2.817,0,1,1,51.7,87.515a2.817,2.817,0,0,1-2.818,2.817Z" transform="translate(994.511 663)" fill="#094067"/>
    <rect id="Rectangle_169" data-name="Rectangle 169" width="37" height="63" transform="translate(1025 681)" fill="#90b4ce"/>
    <path id="Path_233" data-name="Path 233" d="M29.917,81.068h37.93V17.55H29.917ZM49.536,49.309,66.72,20.177V78.441ZM66.3,79.942H31.466L48.882,50.418ZM48.882,48.2,31.466,18.677H66.3Zm-.654,1.109L31.044,78.441V20.177Z" transform="translate(994.511 663)" fill="#094067"/>
    <rect id="Rectangle_170" data-name="Rectangle 170" width="47" height="90" rx="5" transform="translate(1077 668)" fill="#fff"/>
    <rect id="Rectangle_173" data-name="Rectangle 173" width="30" height="8" transform="translate(1086 698)" fill="#094067"/>
    <rect id="Rectangle_175" data-name="Rectangle 175" width="30" height="8" transform="translate(1086 723)" fill="#094067"/>
    <rect id="Rectangle_174" data-name="Rectangle 174" width="30" height="13" transform="translate(1086 685)" fill="#90b4ce"/>
    <rect id="Rectangle_177" data-name="Rectangle 177" width="30" height="13" transform="translate(1086 710)" fill="#90b4ce"/>
    <rect id="Rectangle_178" data-name="Rectangle 178" width="30" height="8" transform="translate(1086 735)" fill="#90b4ce"/>
    <path id="Path_209" data-name="Path 209" d="M68.323,5H31.677a5.075,5.075,0,0,0-5.07,5.07v80a5.075,5.075,0,0,0,5.07,5.07H68.323a5.075,5.075,0,0,0,5.07-5.07v-80A5.075,5.075,0,0,0,68.323,5Zm3.943,85.067a3.948,3.948,0,0,1-3.943,3.943H31.677a3.948,3.948,0,0,1-3.943-3.943v-80a3.948,3.948,0,0,1,3.943-3.943H68.323a3.948,3.948,0,0,1,3.943,3.943Z" transform="translate(1050.511 663)" fill="#094067"/>
    <path id="Path_210" data-name="Path 210" d="M45.681,13.519h8.637a1.033,1.033,0,1,0,0-2.065H45.681a1.033,1.033,0,1,0,0,2.065Z" transform="translate(1050.511 663)" fill="#094067"/>
    <path id="Path_211" data-name="Path 211" d="M31.035,81.068h37.93V17.55H31.035Zm33.642-1.127H35.76V72.385H64.677ZM32.162,18.677H67.838V79.942H65.8V71.259H34.633v8.683H32.162Z" transform="translate(1050.511 663)" fill="#094067"/>
    <path id="Path_212" data-name="Path 212" d="M50,83.572a3.943,3.943,0,1,0,3.943,3.943A3.943,3.943,0,0,0,50,83.572Zm0,6.76a2.817,2.817,0,1,1,2.817-2.817A2.817,2.817,0,0,1,50,90.332Z" transform="translate(1050.511 663)" fill="#094067"/>
    <path id="Path_213" data-name="Path 213" d="M65.8,21.531H34.633V44.063H65.8Zm-1.127,1.127v11.83H35.76V22.657ZM35.76,42.936V35.613H64.677v7.323Z" transform="translate(1050.511 663)" fill="#094067"/>
    <path id="Path_214" data-name="Path 214" d="M65.8,46.379H34.633V68.911H65.8Zm-1.127,1.127V59.4H35.76V47.506ZM35.76,67.785V60.524H64.677v7.261Z" transform="translate(1050.511 663)" fill="#094067"/>
    <rect id="Rectangle_164" data-name="Rectangle 164" width="15.147" height="1.127" transform="translate(1097.412 700.303)" fill="#90b4ce"/>
    <rect id="Rectangle_165" data-name="Rectangle 165" width="11.516" height="1.127" transform="translate(1097.412 703.12)" fill="#90b4ce"/>
    <rect id="Rectangle_166" data-name="Rectangle 166" width="15.147" height="1.127" transform="translate(1097.412 725.214)" fill="#90b4ce"/>
    <rect id="Rectangle_167" data-name="Rectangle 167" width="11.516" height="1.127" transform="translate(1097.412 728.031)" fill="#90b4ce"/>
    <g id="Group_311" data-name="Group 311" transform="translate(-1445 229)">
      <path id="Path_215" data-name="Path 215" d="M40.83,36.083a3,3,0,1,0,3,3A3,3,0,0,0,40.83,36.083Zm0,4.882a1.878,1.878,0,1,1,1.878-1.878,1.878,1.878,0,0,1-1.878,1.878Z" transform="translate(2495.17 433.917)" fill="#094067"/>
      <circle id="Ellipse_6" data-name="Ellipse 6" cx="2" cy="2" r="2" transform="translate(2534 471)" fill="#ef4565"/>
    </g>
    <g id="Group_312" data-name="Group 312" transform="translate(-1445 254)">
      <path id="Path_215-2" data-name="Path 215" d="M40.83,36.083a3,3,0,1,0,3,3A3,3,0,0,0,40.83,36.083Zm0,4.882a1.878,1.878,0,1,1,1.878-1.878,1.878,1.878,0,0,1-1.878,1.878Z" transform="translate(2495.17 433.917)" fill="#094067"/>
      <circle id="Ellipse_6-2" data-name="Ellipse 6" cx="2" cy="2" r="2" transform="translate(2534 471)" fill="#ef4565"/>
    </g>
  </g>
</svg>
