<svg xmlns="http://www.w3.org/2000/svg" width="153.646" height="91.2" viewBox="0 0 153.646 91.2"><g transform="translate(4968.5 -3215.5)"><g transform="translate(227.4 124)"><path d="M9.431,105.45H137.95a.845.845,0,0,0,.788-.788V26.919a5.485,5.485,0,0,0-5.519-5.519H14.319A5.485,5.485,0,0,0,8.8,26.919v77.742A.721.721,0,0,0,9.431,105.45ZM73.769,22.977a.788.788,0,1,1-.788.788A.745.745,0,0,1,73.769,22.977ZM12.585,26.288H134.954v72.7H12.585Z" transform="translate(-5192.846 3070.6)" fill="none" stroke="#13a3fd" stroke-miterlimit="10" stroke-width="1"/><path d="M85.965,75.9a.745.745,0,0,1-.788.788H70.669a.745.745,0,0,1-.788-.788H1.6a4.06,4.06,0,0,0,3.785,4.258H150.462a4.06,4.06,0,0,0,3.785-4.258Z" transform="translate(-5197 3102.043)" fill="none" stroke="#13a3fd" stroke-miterlimit="10" stroke-width="1"/></g><g transform="translate(-4934.5 3228.1)"><path d="M9.734,4.5H46.37A5.234,5.234,0,0,1,51.6,9.734V46.37A5.234,5.234,0,0,1,46.37,51.6H9.734A5.234,5.234,0,0,1,4.5,46.37V9.734A5.234,5.234,0,0,1,9.734,4.5Z" transform="translate(0 0)" fill="none" stroke="#13a3fd" stroke-linecap="round" stroke-linejoin="round" stroke-width="1"/><path d="M18.351,14.425A3.925,3.925,0,1,1,14.425,10.5,3.925,3.925,0,0,1,18.351,14.425Z" transform="translate(4.467 4.467)" fill="none" stroke="#13a3fd" stroke-linecap="round" stroke-linejoin="round" stroke-width="1"/><path d="M49.37,28.084,36.285,15,7.5,43.785" transform="translate(2.234 7.818)" fill="none" stroke="#13a3fd" stroke-linecap="round" stroke-linejoin="round" stroke-width="1"/></g><g transform="translate(-128 -134.519)"><g transform="translate(-4732.599 3364)"><g transform="translate(7.566 7.666)"><path d="M383.035,93.125l-1.1-.336c.606-1.981,1.111-3.818,1.5-5.462l1.119.266C384.159,89.26,383.648,91.122,383.035,93.125Z" transform="translate(-381.935 -87.327)" fill="#13a3fd"/></g><g transform="translate(1.895 7.522)"><path d="M343.551,92.319l-1.06-.447c.85-2.013,1.7-3.881,2.517-5.551l1.033.507C345.23,88.478,344.392,90.326,343.551,92.319Z" transform="translate(-342.491 -86.32)" fill="#13a3fd"/></g><g transform="translate(4.413 0)"><path d="M361.033,42.034,360,41.527a43.212,43.212,0,0,1,3.131-5.532c1.133-1.605,1.967-2.2,2.7-1.925.869.323.9,1.628.829,2.728a32.7,32.7,0,0,1-.889,5.14l-1.119-.266c1.156-4.862.878-6.187.763-6.482C365.109,35.352,363.833,36.331,361.033,42.034Z" transform="translate(-360 -34.005)" fill="#13a3fd"/></g><g transform="translate(0 13.128)"><path d="M330.3,144.931l-.99-.586c1.7-2.869,2.883-5.763,4.892-11.165,1.005-2.7,1.905-5.348,2.674-7.863l1.1.336c-.776,2.536-1.683,5.2-2.7,7.927C333.244,139.05,332.042,141.987,330.3,144.931Z" transform="translate(-329.308 -125.317)" fill="#13a3fd"/></g></g><g transform="translate(-4746.688 3413.815)"><path d="M231.312,384.146l1.221-1.217a13.411,13.411,0,0,0,1.807-2.245l1,.566a8.62,8.62,0,0,1-.7,1.019,18.059,18.059,0,0,0,3.6-1.787l.619.969a16.12,16.12,0,0,1-5.842,2.454Z" transform="translate(-231.312 -380.482)" fill="#13a3fd"/></g><g transform="translate(-4739.759 3377.073)"><path d="M280.124,162.641l-.619-.969c.177-.113.327-.212.471-.311,4.094-2.819,5.222-5.955,4.645-12.9l0-.056.084-.744-3.463-1.288.085-.473c.577-3.217,2.691-9.127,4.889-15.035.758-2.038,1.549-4.033,2.35-5.93l1.06.447c-.794,1.881-1.579,3.861-2.331,5.883a126.342,126.342,0,0,0-4.743,14.366l3.4,1.264-.173,1.526c.6,7.322-.7,10.831-5.143,13.891C280.473,162.415,280.313,162.521,280.124,162.641Z" transform="translate(-279.505 -124.93)" fill="#13a3fd"/></g><g transform="translate(-4743.661 3400.976)"><path d="M253.368,304.793l-1-.566a13.3,13.3,0,0,0,1.119-6.054c.046-3.755.711-4.482,2.316-6.239.207-.226.431-.472.675-.747l.86.763c-.248.28-.476.53-.686.76-1.556,1.7-1.974,2.161-2.015,5.478A14.324,14.324,0,0,1,253.368,304.793Z" transform="translate(-252.366 -291.187)" fill="#13a3fd"/></g></g></g></svg>