<svg xmlns="http://www.w3.org/2000/svg" width="153.659" height="90.701" viewBox="0 0 153.659 90.701">
  <g id="Group_316" data-name="Group 316" transform="translate(-563.499 -699)">
    <rect id="Rectangle_181" data-name="Rectangle 181" width="123" height="74" transform="translate(579 703)" fill="#90b4ce"/>
    <path id="Path_235" data-name="Path 235" d="M9.431,105.45H137.95a.845.845,0,0,0,.788-.788V26.919a5.485,5.485,0,0,0-5.519-5.519H14.319A5.485,5.485,0,0,0,8.8,26.919v77.742A.721.721,0,0,0,9.431,105.45ZM73.769,22.977a.788.788,0,1,1-.788.788.745.745,0,0,1,.788-.788ZM12.585,26.288H134.954v72.7H12.585Z" transform="translate(566.704 678.1)" fill="#fffffe" stroke="#094067" stroke-miterlimit="10" stroke-width="1"/>
    <path id="Path_236" data-name="Path 236" d="M85.965,75.9a.745.745,0,0,1-.788.788H70.669a.745.745,0,0,1-.788-.788H1.6a4.06,4.06,0,0,0,3.785,4.258H150.462a4.06,4.06,0,0,0,3.785-4.258Z" transform="translate(562.405 709.043)" fill="#fffffe" stroke="#094067" stroke-miterlimit="10" stroke-width="1"/>
    <rect id="Rectangle_182" data-name="Rectangle 182" width="14" height="12" transform="translate(632.003 724)" fill="#ef4565"/>
    <path id="Path_245" data-name="Path 245" d="M16,66H84a3,3,0,0,0,3-3V35a3,3,0,0,0-3-3H16a3,3,0,0,0-3,3V63A3,3,0,0,0,16,66ZM44.43,44.55a1,1,0,0,1,1.48-.88L54,48.12a1,1,0,0,1,0,1.75l-8.07,4.45a1,1,0,0,1-1.48-.88Z" transform="translate(590.003 681)" fill="#094067"/>
    <path id="Path_246" data-name="Path 246" d="M56,70.75H16.15a3.041,3.041,0,0,0-3.1,2.032,2.2,2.2,0,0,0,.637,2.061,3.27,3.27,0,0,0,2.313.9H55.85A3.05,3.05,0,0,0,59,73.715a2.207,2.207,0,0,0-.653-2.077A3.284,3.284,0,0,0,56,70.75Z" transform="translate(590.003 681.251)" fill="#094067"/>
    <path id="Path_247" data-name="Path 247" d="M56,81.25H16.15a3.041,3.041,0,0,0-3.1,2.032,2.2,2.2,0,0,0,.637,2.061,3.27,3.27,0,0,0,2.313.9H55.85A3.05,3.05,0,0,0,59,84.215a2.207,2.207,0,0,0-.653-2.077A3.284,3.284,0,0,0,56,81.25Z" transform="translate(590.003 680.751)" fill="#094067"/>
    <path id="Path_248" data-name="Path 248" d="M83.5,70.75H66.65a3.041,3.041,0,0,0-3.1,2.033,2.205,2.205,0,0,0,.637,2.061,3.269,3.269,0,0,0,2.313.9H83.35a3.041,3.041,0,0,0,3.1-2.033,2.205,2.205,0,0,0-.637-2.061,3.269,3.269,0,0,0-2.313-.9Z" transform="translate(590.003 681.251)" fill="#094067"/>
    <path id="Path_249" data-name="Path 249" d="M83.5,81.25H66.65a3.041,3.041,0,0,0-3.1,2.033,2.205,2.205,0,0,0,.637,2.061,3.269,3.269,0,0,0,2.313.9H83.35a3.041,3.041,0,0,0,3.1-2.033,2.205,2.205,0,0,0-.637-2.061,3.269,3.269,0,0,0-2.313-.9Z" transform="translate(590.003 680.751)" fill="#094067"/>
  </g>
</svg>
