<svg xmlns="http://www.w3.org/2000/svg" width="153.646" height="91.2" viewBox="0 0 153.646 91.2"><g transform="translate(4968.5 -3215.5)"><g transform="translate(227.4 124)"><path d="M9.431,105.45H137.95a.845.845,0,0,0,.788-.788V26.919a5.485,5.485,0,0,0-5.519-5.519H14.319A5.485,5.485,0,0,0,8.8,26.919v77.742A.721.721,0,0,0,9.431,105.45ZM73.769,22.977a.788.788,0,1,1-.788.788A.745.745,0,0,1,73.769,22.977ZM12.585,26.288H134.954v72.7H12.585Z" transform="translate(-5192.846 3070.6)" fill="none" stroke="#13a3fd" stroke-miterlimit="10" stroke-width="1"/><path d="M85.965,75.9a.745.745,0,0,1-.788.788H70.669a.745.745,0,0,1-.788-.788H1.6a4.06,4.06,0,0,0,3.785,4.258H150.462a4.06,4.06,0,0,0,3.785-4.258Z" transform="translate(-5197 3102.043)" fill="none" stroke="#13a3fd" stroke-miterlimit="10" stroke-width="1"/></g><path d="M68.834,146.67a.471.471,0,0,0-.47-.47H57.27a.47.47,0,1,0,0,.94H68.364A.505.505,0,0,0,68.834,146.67Z" transform="translate(-4961.995 3132.104)" fill="#13a3fd"/><path d="M86.874,146.67a.471.471,0,0,0-.47-.47H84.57a.47.47,0,1,0,0,.94H86.4A.471.471,0,0,0,86.874,146.67Z" transform="translate(-4976.461 3132.104)" fill="#13a3fd"/><path d="M91.87,147.14h1.222a.47.47,0,1,0,0-.94H91.87a.47.47,0,1,0,0,.94Z" transform="translate(-4980.329 3132.104)" fill="#13a3fd"/><path d="M98.364,151H87.27a.47.47,0,1,0,0,.94H98.364a.47.47,0,1,0,0-.94Z" transform="translate(-4977.893 3129.56)" fill="#13a3fd"/><path d="M81.5,151H79.67a.47.47,0,1,0,0,.94H81.5a.471.471,0,0,0,.47-.47A.5.5,0,0,0,81.5,151Z" transform="translate(-4973.864 3129.56)" fill="#13a3fd"/><path d="M74.892,151H73.67a.47.47,0,1,0,0,.94h1.222a.471.471,0,0,0,.47-.47A.444.444,0,0,0,74.892,151Z" transform="translate(-4970.685 3129.56)" fill="#13a3fd"/><g transform="translate(-4914.5 3230.1)"><path d="M8.6,4.5h28.72a4.1,4.1,0,0,1,4.1,4.1v28.72a4.1,4.1,0,0,1-4.1,4.1H8.6a4.1,4.1,0,0,1-4.1-4.1V8.6A4.1,4.1,0,0,1,8.6,4.5Z" transform="translate(0 0)" fill="none" stroke="#13a3fd" stroke-linecap="round" stroke-linejoin="round" stroke-width="1"/><path d="M16.654,13.577A3.077,3.077,0,1,1,13.577,10.5,3.077,3.077,0,0,1,16.654,13.577Z" transform="translate(2.206 2.206)" fill="none" stroke="#13a3fd" stroke-linecap="round" stroke-linejoin="round" stroke-width="1"/><path d="M40.323,25.257,30.066,15,7.5,37.566" transform="translate(1.103 3.86)" fill="none" stroke="#13a3fd" stroke-linecap="round" stroke-linejoin="round" stroke-width="1"/></g></g></svg>